<?xml version="1.0" encoding="utf-8" standalone="no"?>
<!DOCTYPE svg PUBLIC "-//W3C//DTD SVG 1.1//EN"
  "http://www.w3.org/Graphics/SVG/1.1/DTD/svg11.dtd">
<svg xmlns:xlink="http://www.w3.org/1999/xlink" width="713.707812pt" height="376.612187pt" viewBox="0 0 713.707812 376.612187" xmlns="http://www.w3.org/2000/svg" version="1.1">
 <metadata>
  <rdf:RDF xmlns:dc="http://purl.org/dc/elements/1.1/" xmlns:cc="http://creativecommons.org/ns#" xmlns:rdf="http://www.w3.org/1999/02/22-rdf-syntax-ns#">
   <cc:Work>
    <dc:type rdf:resource="http://purl.org/dc/dcmitype/StillImage"/>
    <dc:date>2026-05-18T06:41:20.472254</dc:date>
    <dc:format>image/svg+xml</dc:format>
    <dc:creator>
     <cc:Agent>
      <dc:title>Matplotlib v3.10.9, https://matplotlib.org/</dc:title>
     </cc:Agent>
    </dc:creator>
   </cc:Work>
  </rdf:RDF>
 </metadata>
 <defs>
  <style type="text/css">*{stroke-linejoin: round; stroke-linecap: butt}</style>
 </defs>
 <g id="figure_1">
  <g id="patch_1">
   <path d="M 0 376.612187 
L 713.707812 376.612187 
L 713.707812 0 
L 0 0 
z
" style="fill: #ffffff"/>
  </g>
  <g id="axes_1">
   <g id="patch_2">
    <path d="M 36.907813 355.4325 
L 706.507812 355.4325 
L 706.507812 22.7925 
L 36.907813 22.7925 
z
" style="fill: #ffffff"/>
   </g>
   <g id="matplotlib.axis_1">
    <g id="xtick_1">
     <g id="line2d_1">
      <path d="M 120.607813 355.4325 
L 120.607813 22.7925 
" clip-path="url(#p3fa81239fc)" style="fill: none; stroke-dasharray: 2.96,1.28; stroke-dashoffset: 0; stroke: #cccccc; stroke-opacity: 0.25; stroke-width: 0.8"/>
     </g>
     <g id="line2d_2"/>
     <g id="text_1">
      <!-- 本机-优化前 -->
      <g style="fill: #262626" transform="translate(93.444531 366.92625) scale(0.1 -0.1)">
       <defs>
        <path id="MicrosoftYaHei-672c" d="M 6281 803 
Q 6119 641 5856 366 
Q 4344 1531 3444 3353 
L 3444 878 
L 4875 878 
L 4875 441 
L 3444 441 
L 3444 -841 
L 2956 -841 
L 2956 441 
L 1475 441 
L 1475 878 
L 2956 878 
L 2956 3353 
Q 2159 1766 513 291 
Q 269 522 100 666 
Q 1878 2125 2759 3753 
L 238 3753 
L 238 4216 
L 2956 4216 
L 2956 5341 
L 3444 5341 
L 3444 4216 
L 6163 4216 
L 6163 3753 
L 3622 3753 
Q 4616 1884 6281 803 
z
" transform="scale(0.015625)"/>
        <path id="MicrosoftYaHei-673a" d="M 3375 4434 
L 3375 2366 
Q 3375 128 2256 -878 
Q 2081 -666 1888 -453 
Q 2875 416 2875 2253 
L 2875 4909 
L 5200 4909 
L 5200 209 
Q 5200 -103 5419 -103 
L 5563 -103 
Q 5763 -103 5819 247 
Q 5881 728 5906 1284 
Q 6125 1178 6381 1084 
Q 6325 466 6269 72 
Q 6169 -591 5631 -591 
L 5300 -591 
Q 4700 -591 4700 122 
L 4700 4434 
L 3375 4434 
z
M 81 1403 
Q 781 2447 1078 3653 
L 144 3653 
L 144 4078 
L 1119 4078 
L 1119 5309 
L 1569 5309 
L 1569 4078 
L 2444 4078 
L 2444 3653 
L 1569 3653 
L 1569 2616 
L 1819 2866 
Q 2300 2428 2575 2153 
L 2238 1809 
Q 1853 2234 1569 2516 
L 1569 -784 
L 1119 -784 
L 1119 2566 
Q 784 1506 288 853 
Q 188 1134 81 1403 
z
" transform="scale(0.015625)"/>
        <path id="MicrosoftYaHei-2d" d="M 2328 1681 
L 488 1681 
L 488 2153 
L 2328 2153 
L 2328 1681 
z
" transform="scale(0.015625)"/>
        <path id="MicrosoftYaHei-4f18" d="M 1825 3609 
L 3184 3609 
Q 3216 4322 3213 5272 
L 3713 5272 
Q 3719 4338 3688 3609 
L 6188 3609 
L 6188 3153 
L 4475 3153 
L 4475 228 
Q 4475 -122 4838 -122 
L 5244 -122 
Q 5656 -122 5700 303 
Q 5750 659 5781 1266 
Q 6031 1166 6294 1066 
Q 6244 528 6175 109 
Q 6100 -291 5900 -447 
Q 5713 -603 5275 -597 
L 4763 -597 
Q 4325 -597 4150 -422 
Q 3969 -259 3969 184 
L 3969 3153 
L 3663 3153 
Q 3600 791 1950 -803 
Q 1775 -597 1575 -397 
Q 3100 1028 3159 3153 
L 1825 3153 
L 1825 3609 
z
M 88 2334 
Q 1056 3641 1556 5291 
L 2063 5122 
Q 1753 4253 1388 3522 
L 1388 -809 
L 913 -809 
L 913 2666 
Q 616 2184 288 1778 
Q 194 2047 88 2334 
z
M 4600 5184 
Q 5269 4759 5713 4391 
Q 5538 4197 5388 3991 
Q 4875 4447 4325 4841 
L 4600 5184 
z
" transform="scale(0.015625)"/>
        <path id="MicrosoftYaHei-5316" d="M 1844 1453 
Q 2663 1834 3375 2331 
L 3375 5197 
L 3913 5197 
L 3913 2734 
Q 4869 3506 5613 4516 
L 6069 4184 
Q 5159 2975 3913 2069 
L 3913 303 
Q 3913 -122 4363 -122 
L 5156 -122 
Q 5581 -122 5650 284 
Q 5738 709 5763 1266 
Q 6025 1166 6313 1084 
Q 6263 559 6181 122 
Q 6063 -597 5281 -597 
L 4225 -597 
Q 3375 -597 3375 241 
L 3375 1703 
Q 2791 1328 2144 1016 
Q 2013 1222 1844 1453 
z
M 88 2222 
Q 1175 3666 1688 5291 
L 2231 5134 
Q 1934 4359 1588 3675 
L 1588 -797 
L 1063 -797 
L 1063 2734 
Q 716 2172 325 1678 
Q 219 1947 88 2222 
z
" transform="scale(0.015625)"/>
        <path id="MicrosoftYaHei-524d" d="M 1038 -841 
L 563 -841 
L 563 3322 
L 3300 3322 
L 3300 -172 
Q 3300 -784 2669 -772 
Q 2406 -772 1950 -759 
Q 1913 -516 1856 -297 
Q 2238 -328 2563 -328 
Q 2825 -334 2825 -72 
L 2825 722 
L 1038 722 
L 1038 -841 
z
M 150 4372 
L 2169 4372 
Q 1963 4697 1644 5078 
L 2038 5347 
Q 2425 4916 2663 4578 
L 2353 4372 
L 4063 4372 
L 3813 4509 
Q 4144 4916 4388 5359 
L 4863 5084 
Q 4575 4691 4284 4372 
L 6263 4372 
L 6263 3934 
L 150 3934 
L 150 4372 
z
M 5331 3522 
L 5819 3522 
L 5819 28 
Q 5819 -741 5094 -747 
Q 4763 -753 4269 -741 
Q 4238 -484 4181 -216 
Q 4644 -266 4931 -266 
Q 5331 -266 5331 141 
L 5331 3522 
z
M 4044 3222 
L 4519 3222 
L 4519 409 
L 4044 409 
L 4044 3222 
z
M 2825 2897 
L 1038 2897 
L 1038 2228 
L 2825 2228 
L 2825 2897 
z
M 1038 1141 
L 2825 1141 
L 2825 1809 
L 1038 1809 
L 1038 1141 
z
" transform="scale(0.015625)"/>
       </defs>
       <use xlink:href="#MicrosoftYaHei-672c"/>
       <use xlink:href="#MicrosoftYaHei-673a" transform="translate(100 0)"/>
       <use xlink:href="#MicrosoftYaHei-2d" transform="translate(200 0)"/>
       <use xlink:href="#MicrosoftYaHei-4f18" transform="translate(243.261719 0)"/>
       <use xlink:href="#MicrosoftYaHei-5316" transform="translate(343.261719 0)"/>
       <use xlink:href="#MicrosoftYaHei-524d" transform="translate(443.261719 0)"/>
      </g>
     </g>
    </g>
    <g id="xtick_2">
     <g id="line2d_3">
      <path d="M 288.007812 355.4325 
L 288.007812 22.7925 
" clip-path="url(#p3fa81239fc)" style="fill: none; stroke-dasharray: 2.96,1.28; stroke-dashoffset: 0; stroke: #cccccc; stroke-opacity: 0.25; stroke-width: 0.8"/>
     </g>
     <g id="line2d_4"/>
     <g id="text_2">
      <!-- 本机-优化后 -->
      <g style="fill: #262626" transform="translate(260.844531 366.92625) scale(0.1 -0.1)">
       <defs>
        <path id="MicrosoftYaHei-540e" d="M 1888 1984 
L 5688 1984 
L 5688 -828 
L 5188 -828 
L 5188 -403 
L 2388 -403 
L 2388 -828 
L 1888 -828 
L 1888 1984 
z
M 1313 2991 
Q 1313 1272 1138 672 
Q 963 -16 394 -847 
Q 250 -634 50 -409 
Q 494 222 650 859 
Q 806 1472 806 2659 
L 806 4766 
Q 3544 4853 5631 5141 
L 5931 4622 
Q 3344 4359 1313 4284 
L 1313 3459 
L 6263 3459 
L 6263 2991 
L 1313 2991 
z
M 5188 1528 
L 2388 1528 
L 2388 41 
L 5188 41 
L 5188 1528 
z
" transform="scale(0.015625)"/>
       </defs>
       <use xlink:href="#MicrosoftYaHei-672c"/>
       <use xlink:href="#MicrosoftYaHei-673a" transform="translate(100 0)"/>
       <use xlink:href="#MicrosoftYaHei-2d" transform="translate(200 0)"/>
       <use xlink:href="#MicrosoftYaHei-4f18" transform="translate(243.261719 0)"/>
       <use xlink:href="#MicrosoftYaHei-5316" transform="translate(343.261719 0)"/>
       <use xlink:href="#MicrosoftYaHei-540e" transform="translate(443.261719 0)"/>
      </g>
     </g>
    </g>
    <g id="xtick_3">
     <g id="line2d_5">
      <path d="M 455.407813 355.4325 
L 455.407813 22.7925 
" clip-path="url(#p3fa81239fc)" style="fill: none; stroke-dasharray: 2.96,1.28; stroke-dashoffset: 0; stroke: #cccccc; stroke-opacity: 0.25; stroke-width: 0.8"/>
     </g>
     <g id="line2d_6"/>
     <g id="text_3">
      <!-- 同类机械臂A -->
      <g style="fill: #262626" transform="translate(426.889844 366.92625) scale(0.1 -0.1)">
       <defs>
        <path id="MicrosoftYaHei-540c" d="M 1013 -772 
L 531 -772 
L 531 4959 
L 5856 4959 
L 5856 -47 
Q 5856 -741 5125 -741 
Q 4669 -741 4088 -716 
Q 4056 -497 4000 -216 
Q 4619 -272 5025 -272 
Q 5375 -272 5375 78 
L 5375 4497 
L 1013 4497 
L 1013 -772 
z
M 1875 2566 
L 4506 2566 
L 4506 597 
L 2338 597 
L 2338 272 
L 1875 272 
L 1875 2566 
z
M 4044 2116 
L 2338 2116 
L 2338 1047 
L 4044 1047 
L 4044 2116 
z
M 1363 3734 
L 5025 3734 
L 5025 3284 
L 1363 3284 
L 1363 3734 
z
" transform="scale(0.015625)"/>
        <path id="MicrosoftYaHei-7c7b" d="M 6338 -359 
Q 6213 -503 6006 -853 
Q 3975 -459 3200 884 
Q 2644 -497 400 -897 
Q 288 -684 131 -434 
Q 2244 -147 2744 1047 
L 275 1047 
L 275 1484 
L 2875 1484 
Q 2925 1691 2956 1978 
L 3456 1978 
Q 3413 1697 3369 1484 
L 6125 1484 
L 6125 1047 
L 3619 1047 
Q 4450 -159 6338 -359 
z
M 325 3741 
L 2975 3741 
L 2975 5303 
L 3450 5303 
L 3450 3741 
L 6075 3741 
L 6075 3322 
L 3450 3322 
L 3450 2953 
L 3625 3191 
Q 5325 2528 6231 2128 
L 6013 1722 
Q 4956 2266 3450 2847 
L 3450 2197 
L 2975 2197 
L 2975 3241 
Q 1863 2191 450 1741 
Q 319 1934 144 2153 
Q 1569 2553 2538 3322 
L 325 3322 
L 325 3741 
z
M 5550 4784 
Q 5163 4459 4394 3891 
L 4069 4222 
Q 4569 4578 5194 5122 
L 5550 4784 
z
M 900 4791 
L 1206 5122 
Q 1875 4647 2306 4266 
L 1969 3897 
Q 1581 4284 900 4791 
z
" transform="scale(0.015625)"/>
        <path id="MicrosoftYaHei-68b0" d="M 6100 3059 
Q 5775 1772 5081 778 
Q 5275 28 5569 -203 
Q 5694 -303 5744 -134 
Q 5825 147 5888 947 
Q 6100 834 6313 766 
Q 6238 28 6150 -322 
Q 6044 -728 5744 -784 
Q 5438 -822 5163 -472 
Q 4919 -203 4744 334 
Q 4419 -47 4031 -384 
Q 3938 -191 3788 -16 
Q 4244 397 4600 872 
Q 4400 1778 4306 3691 
L 2275 3691 
L 2275 4109 
L 4288 4109 
Q 4269 4641 4250 5266 
L 4706 5266 
Q 4713 4628 4731 4109 
L 6175 4109 
L 6175 3691 
L 4750 3691 
Q 4813 2366 4956 1397 
Q 5444 2216 5663 3184 
L 6100 3059 
z
M 75 1359 
Q 631 2309 925 3578 
L 194 3578 
L 194 3997 
L 975 3997 
L 975 5234 
L 1413 5234 
L 1413 3997 
L 2063 3997 
L 2063 3578 
L 1413 3578 
L 1413 3053 
L 1631 3184 
Q 1900 2809 2150 2409 
L 1788 2184 
Q 1600 2522 1413 2822 
L 1413 -834 
L 975 -834 
L 975 2509 
Q 663 1422 275 809 
Q 188 1122 75 1359 
z
M 1919 1997 
L 2381 1997 
L 2381 3284 
L 2806 3284 
L 2806 1997 
L 3350 1997 
L 3350 3284 
L 3775 3284 
L 3775 1997 
L 4250 1997 
L 4250 1578 
L 3775 1578 
L 3775 -634 
L 3350 -634 
L 3350 1578 
L 2800 1578 
Q 2769 53 2050 -722 
Q 1931 -559 1725 -372 
Q 2344 291 2375 1578 
L 1919 1578 
L 1919 1997 
z
M 4988 4916 
L 5263 5203 
Q 5719 4872 5988 4616 
L 5669 4278 
Q 5381 4584 4988 4916 
z
" transform="scale(0.015625)"/>
        <path id="MicrosoftYaHei-81c2" d="M 1531 -816 
L 1094 -816 
L 1094 1847 
L 5444 1847 
L 5444 -72 
Q 5444 -747 4775 -747 
Q 4281 -747 3925 -741 
Q 3900 -553 3844 -303 
Q 4338 -334 4663 -334 
Q 5006 -334 5006 -9 
L 5006 59 
L 1531 59 
L 1531 -816 
z
M 594 5034 
L 3013 5034 
L 3013 3709 
L 2625 3709 
L 2625 3853 
L 947 3853 
Q 838 2950 369 2309 
Q 250 2484 94 2672 
Q 594 3303 594 4428 
L 594 5034 
z
M 5750 4159 
Q 5575 3919 5388 3691 
L 6275 3691 
L 6275 3353 
L 4875 3353 
L 4875 2872 
L 6081 2872 
L 6081 2534 
L 4875 2534 
L 4875 2009 
L 4463 2009 
L 4463 2534 
L 3313 2534 
L 3313 2872 
L 4463 2872 
L 4463 3353 
L 3150 3353 
L 3150 3691 
L 4009 3691 
Q 3884 3881 3669 4153 
L 3981 4372 
Q 4213 4116 4394 3866 
L 4128 3691 
L 4950 3691 
Q 5197 4041 5369 4359 
L 5750 4159 
z
M 919 3384 
L 3013 3384 
L 3013 2103 
L 2625 2103 
L 2625 2247 
L 1306 2247 
L 1306 2103 
L 919 2103 
L 919 3384 
z
M 5006 1497 
L 1531 1497 
L 1531 1116 
L 5006 1116 
L 5006 1497 
z
M 1531 397 
L 5006 397 
L 5006 778 
L 1531 778 
L 1531 397 
z
M 3288 4747 
L 4566 4747 
Q 4428 4956 4250 5197 
L 4581 5397 
Q 4794 5134 4956 4878 
L 4738 4747 
L 6156 4747 
L 6156 4409 
L 3288 4409 
L 3288 4747 
z
M 2625 4697 
L 981 4697 
Q 981 4428 975 4191 
L 2625 4191 
L 2625 4697 
z
M 2625 3059 
L 1306 3059 
L 1306 2572 
L 2625 2572 
L 2625 3059 
z
" transform="scale(0.015625)"/>
        <path id="MicrosoftYaHei-41" d="M 4428 0 
L 3738 0 
L 3244 1325 
L 1228 1325 
L 763 0 
L 72 0 
L 1916 4841 
L 2584 4841 
L 4428 0 
z
M 3050 1872 
L 2319 3884 
Q 2284 3981 2244 4222 
L 2228 4222 
Q 2194 4003 2150 3884 
L 1425 1872 
L 3050 1872 
z
" transform="scale(0.015625)"/>
       </defs>
       <use xlink:href="#MicrosoftYaHei-540c"/>
       <use xlink:href="#MicrosoftYaHei-7c7b" transform="translate(100 0)"/>
       <use xlink:href="#MicrosoftYaHei-673a" transform="translate(200 0)"/>
       <use xlink:href="#MicrosoftYaHei-68b0" transform="translate(300 0)"/>
       <use xlink:href="#MicrosoftYaHei-81c2" transform="translate(400 0)"/>
       <use xlink:href="#MicrosoftYaHei-41" transform="translate(500 0)"/>
      </g>
     </g>
    </g>
    <g id="xtick_4">
     <g id="line2d_7">
      <path d="M 622.807813 355.4325 
L 622.807813 22.7925 
" clip-path="url(#p3fa81239fc)" style="fill: none; stroke-dasharray: 2.96,1.28; stroke-dashoffset: 0; stroke: #cccccc; stroke-opacity: 0.25; stroke-width: 0.8"/>
     </g>
     <g id="line2d_8"/>
     <g id="text_4">
      <!-- 同类机械臂B -->
      <g style="fill: #262626" transform="translate(594.670313 366.92625) scale(0.1 -0.1)">
       <defs>
        <path id="MicrosoftYaHei-42" d="M 625 0 
L 625 4841 
L 2047 4841 
Q 2684 4841 3065 4536 
Q 3447 4231 3447 3728 
Q 3447 3328 3220 3022 
Q 2994 2716 2597 2588 
L 2597 2575 
Q 3091 2519 3386 2201 
Q 3681 1884 3681 1397 
Q 3681 772 3232 386 
Q 2784 0 2084 0 
L 625 0 
z
M 1250 4294 
L 1250 2778 
L 1819 2778 
Q 2272 2778 2530 2998 
Q 2788 3219 2788 3609 
Q 2788 4294 1875 4294 
L 1250 4294 
z
M 1250 2234 
L 1250 547 
L 2000 547 
Q 2491 547 2758 773 
Q 3025 1000 3025 1403 
Q 3025 2234 1897 2234 
L 1250 2234 
z
" transform="scale(0.015625)"/>
       </defs>
       <use xlink:href="#MicrosoftYaHei-540c"/>
       <use xlink:href="#MicrosoftYaHei-7c7b" transform="translate(100 0)"/>
       <use xlink:href="#MicrosoftYaHei-673a" transform="translate(200 0)"/>
       <use xlink:href="#MicrosoftYaHei-68b0" transform="translate(300 0)"/>
       <use xlink:href="#MicrosoftYaHei-81c2" transform="translate(400 0)"/>
       <use xlink:href="#MicrosoftYaHei-42" transform="translate(500 0)"/>
      </g>
     </g>
    </g>
   </g>
   <g id="matplotlib.axis_2">
    <g id="ytick_1">
     <g id="line2d_9">
      <path d="M 36.907813 316.213862 
L 706.507812 316.213862 
" clip-path="url(#p3fa81239fc)" style="fill: none; stroke-dasharray: 2.96,1.28; stroke-dashoffset: 0; stroke: #cccccc; stroke-opacity: 0.25; stroke-width: 0.8"/>
     </g>
     <g id="line2d_10"/>
     <g id="text_5">
      <!-- 20 -->
      <g style="fill: #262626" transform="translate(21.679688 320.210737) scale(0.1 -0.1)">
       <defs>
        <path id="MicrosoftYaHei-32" d="M 2666 3572 
Q 2666 3963 2419 4186 
Q 2172 4409 1747 4409 
Q 1447 4409 1140 4256 
Q 834 4103 569 3819 
L 569 4413 
Q 806 4659 1107 4790 
Q 1409 4922 1816 4922 
Q 2472 4922 2872 4570 
Q 3272 4219 3272 3619 
Q 3272 3084 3026 2693 
Q 2781 2303 2188 1894 
Q 1581 1475 1376 1294 
Q 1172 1113 1090 947 
Q 1009 781 1009 544 
L 3416 544 
L 3416 0 
L 372 0 
L 372 241 
Q 372 659 486 951 
Q 600 1244 862 1520 
Q 1125 1797 1681 2184 
Q 2250 2584 2458 2886 
Q 2666 3188 2666 3572 
z
" transform="scale(0.015625)"/>
        <path id="MicrosoftYaHei-30" d="M 284 2325 
Q 284 3606 709 4264 
Q 1134 4922 1941 4922 
Q 3478 4922 3478 2441 
Q 3478 1216 3045 567 
Q 2613 -81 1831 -81 
Q 1094 -81 689 534 
Q 284 1150 284 2325 
z
M 909 2353 
Q 909 425 1888 425 
Q 2850 425 2850 2384 
Q 2850 4413 1906 4413 
Q 909 4413 909 2353 
z
" transform="scale(0.015625)"/>
       </defs>
       <use xlink:href="#MicrosoftYaHei-32"/>
       <use xlink:href="#MicrosoftYaHei-30" transform="translate(58.642578 0)"/>
      </g>
     </g>
    </g>
    <g id="ytick_2">
     <g id="line2d_11">
      <path d="M 36.907813 250.586057 
L 706.507812 250.586057 
" clip-path="url(#p3fa81239fc)" style="fill: none; stroke-dasharray: 2.96,1.28; stroke-dashoffset: 0; stroke: #cccccc; stroke-opacity: 0.25; stroke-width: 0.8"/>
     </g>
     <g id="line2d_12"/>
     <g id="text_6">
      <!-- 30 -->
      <g style="fill: #262626" transform="translate(21.679688 254.582932) scale(0.1 -0.1)">
       <defs>
        <path id="MicrosoftYaHei-33" d="M 447 809 
Q 944 425 1569 425 
Q 2069 425 2361 670 
Q 2653 916 2653 1328 
Q 2653 2247 1338 2247 
L 934 2247 
L 934 2753 
L 1319 2753 
Q 2484 2753 2484 3616 
Q 2484 4413 1594 4413 
Q 1084 4413 634 4069 
L 634 4647 
Q 1109 4922 1744 4922 
Q 2363 4922 2738 4598 
Q 3113 4275 3113 3759 
Q 3113 2809 2144 2538 
L 2144 2525 
Q 2669 2469 2973 2155 
Q 3278 1841 3278 1372 
Q 3278 719 2808 319 
Q 2338 -81 1556 -81 
Q 869 -81 447 175 
L 447 809 
z
" transform="scale(0.015625)"/>
       </defs>
       <use xlink:href="#MicrosoftYaHei-33"/>
       <use xlink:href="#MicrosoftYaHei-30" transform="translate(58.642578 0)"/>
      </g>
     </g>
    </g>
    <g id="ytick_3">
     <g id="line2d_13">
      <path d="M 36.907813 184.958251 
L 706.507812 184.958251 
" clip-path="url(#p3fa81239fc)" style="fill: none; stroke-dasharray: 2.96,1.28; stroke-dashoffset: 0; stroke: #cccccc; stroke-opacity: 0.25; stroke-width: 0.8"/>
     </g>
     <g id="line2d_14"/>
     <g id="text_7">
      <!-- 40 -->
      <g style="fill: #262626" transform="translate(21.679688 188.955126) scale(0.1 -0.1)">
       <defs>
        <path id="MicrosoftYaHei-34" d="M 2906 4841 
L 2906 1644 
L 3631 1644 
L 3631 1138 
L 2906 1138 
L 2906 0 
L 2313 0 
L 2313 1138 
L 53 1138 
L 53 1616 
Q 656 2294 1265 3178 
Q 1875 4063 2272 4841 
L 2906 4841 
z
M 741 1644 
L 2313 1644 
L 2313 3950 
Q 1988 3366 1616 2817 
Q 1244 2269 741 1644 
z
" transform="scale(0.015625)"/>
       </defs>
       <use xlink:href="#MicrosoftYaHei-34"/>
       <use xlink:href="#MicrosoftYaHei-30" transform="translate(58.642578 0)"/>
      </g>
     </g>
    </g>
    <g id="ytick_4">
     <g id="line2d_15">
      <path d="M 36.907813 119.330445 
L 706.507812 119.330445 
" clip-path="url(#p3fa81239fc)" style="fill: none; stroke-dasharray: 2.96,1.28; stroke-dashoffset: 0; stroke: #cccccc; stroke-opacity: 0.25; stroke-width: 0.8"/>
     </g>
     <g id="line2d_16"/>
     <g id="text_8">
      <!-- 50 -->
      <g style="fill: #262626" transform="translate(21.679688 123.32732) scale(0.1 -0.1)">
       <defs>
        <path id="MicrosoftYaHei-35" d="M 3294 1494 
Q 3294 784 2823 350 
Q 2353 -84 1559 -84 
Q 878 -84 544 119 
L 544 744 
Q 1034 425 1544 425 
Q 2050 425 2361 704 
Q 2672 984 2672 1447 
Q 2672 1909 2348 2167 
Q 2025 2425 1434 2425 
Q 978 2425 613 2384 
L 791 4841 
L 3053 4841 
L 3053 4303 
L 1306 4303 
L 1206 2931 
L 1647 2950 
Q 2416 2950 2855 2567 
Q 3294 2184 3294 1494 
z
" transform="scale(0.015625)"/>
       </defs>
       <use xlink:href="#MicrosoftYaHei-35"/>
       <use xlink:href="#MicrosoftYaHei-30" transform="translate(58.642578 0)"/>
      </g>
     </g>
    </g>
    <g id="ytick_5">
     <g id="line2d_17">
      <path d="M 36.907813 53.70264 
L 706.507812 53.70264 
" clip-path="url(#p3fa81239fc)" style="fill: none; stroke-dasharray: 2.96,1.28; stroke-dashoffset: 0; stroke: #cccccc; stroke-opacity: 0.25; stroke-width: 0.8"/>
     </g>
     <g id="line2d_18"/>
     <g id="text_9">
      <!-- 60 -->
      <g style="fill: #262626" transform="translate(21.679688 57.699515) scale(0.1 -0.1)">
       <defs>
        <path id="MicrosoftYaHei-36" d="M 3181 4219 
Q 2803 4413 2391 4413 
Q 1763 4413 1381 3866 
Q 1000 3319 994 2372 
L 1009 2372 
Q 1353 3038 2106 3038 
Q 2734 3038 3109 2628 
Q 3484 2219 3484 1541 
Q 3484 831 3051 375 
Q 2619 -81 1947 -81 
Q 1209 -81 789 495 
Q 369 1072 369 2131 
Q 369 3413 920 4167 
Q 1472 4922 2372 4922 
Q 2888 4922 3181 4781 
L 3181 4219 
z
M 1031 1584 
Q 1031 1106 1286 765 
Q 1541 425 1963 425 
Q 2363 425 2613 719 
Q 2863 1013 2863 1475 
Q 2863 1975 2627 2253 
Q 2391 2531 1956 2531 
Q 1544 2531 1287 2250 
Q 1031 1969 1031 1584 
z
" transform="scale(0.015625)"/>
       </defs>
       <use xlink:href="#MicrosoftYaHei-36"/>
       <use xlink:href="#MicrosoftYaHei-30" transform="translate(58.642578 0)"/>
      </g>
     </g>
    </g>
    <g id="text_10">
     <!-- 功率 (W) -->
     <g style="fill: #262626" transform="translate(15.19375 209.021094) rotate(-90) scale(0.1 -0.1)">
      <defs>
       <path id="MicrosoftYaHei-529f" d="M 2500 3978 
L 3475 3978 
Q 3488 4538 3494 5278 
L 4000 5278 
Q 3991 4531 3975 3978 
L 5969 3978 
Q 5913 1791 5844 291 
Q 5775 -691 4956 -709 
Q 4413 -716 3756 -684 
Q 3713 -397 3656 -122 
Q 4306 -197 4844 -191 
Q 5313 -178 5344 378 
Q 5425 1847 5450 3497 
L 3963 3497 
Q 3950 3003 3931 2734 
Q 3813 266 1938 -847 
Q 1800 -653 1575 -422 
Q 3325 553 3431 2772 
Q 3450 3063 3463 3497 
L 2500 3497 
L 2500 3978 
z
M 81 822 
Q 619 941 1119 1056 
L 1119 4134 
L 169 4134 
L 169 4622 
L 2675 4622 
L 2675 4134 
L 1625 4134 
L 1625 1178 
Q 2166 1313 2656 1447 
Q 2669 1122 2700 947 
Q 1594 672 225 291 
L 81 822 
z
" transform="scale(0.015625)"/>
       <path id="MicrosoftYaHei-7387" d="M 2525 2009 
Q 2622 2016 3928 2081 
Q 3772 2300 3625 2491 
L 3963 2703 
Q 4413 2203 4794 1653 
L 4394 1403 
Q 4284 1569 4178 1725 
Q 2991 1659 2213 1597 
Q 2075 1584 1881 1541 
L 1725 1966 
Q 1913 2028 2006 2084 
Q 2534 2441 3050 2913 
Q 2597 2894 2275 2866 
Q 2144 2847 1988 2809 
L 1800 3191 
Q 1956 3247 2088 3366 
Q 2509 3722 2875 4228 
L 231 4228 
L 231 4666 
L 3031 4666 
Q 2878 4944 2744 5153 
L 3194 5372 
Q 3438 5000 3616 4666 
L 6175 4666 
L 6175 4228 
L 3053 4228 
L 3350 4072 
Q 2844 3553 2494 3247 
Q 2850 3256 3425 3269 
Q 3675 3519 3925 3797 
L 4356 3547 
Q 3363 2603 2525 2009 
z
M 144 991 
L 2994 991 
L 2994 1541 
L 3488 1541 
L 3488 991 
L 6275 991 
L 6275 553 
L 3488 553 
L 3488 -853 
L 2994 -853 
L 2994 553 
L 144 553 
L 144 991 
z
M 1719 2672 
L 1944 2303 
Q 1200 1866 425 1409 
L 163 1828 
Q 813 2134 1719 2672 
z
M 4856 2678 
Q 5750 2172 6250 1816 
L 5975 1409 
Q 5331 1909 4600 2341 
L 4856 2678 
z
M 5994 3591 
Q 5519 3178 4963 2809 
L 4644 3141 
Q 5244 3534 5638 3928 
L 5994 3591 
z
M 363 3634 
L 681 3941 
Q 1200 3528 1588 3159 
L 1238 2816 
Q 875 3197 363 3634 
z
" transform="scale(0.015625)"/>
       <path id="MicrosoftYaHei-20" transform="scale(0.015625)"/>
       <path id="MicrosoftYaHei-28" d="M 1531 -1100 
Q 478 100 478 1847 
Q 478 3594 1531 4841 
L 2072 4841 
Q 1016 3544 1016 1853 
Q 1016 166 2066 -1100 
L 1531 -1100 
z
" transform="scale(0.015625)"/>
       <path id="MicrosoftYaHei-57" d="M 6431 4841 
L 5075 0 
L 4347 0 
L 3372 3488 
Q 3306 3725 3294 3988 
L 3281 3988 
Q 3263 3728 3194 3494 
L 2209 0 
L 1488 0 
L 84 4841 
L 775 4841 
L 1763 1184 
Q 1828 938 1841 688 
L 1859 688 
Q 1875 875 1963 1184 
L 3009 4841 
L 3625 4841 
L 4625 1156 
Q 4675 975 4706 694 
L 4719 694 
Q 4734 897 4809 1169 
L 5759 4841 
L 6431 4841 
z
" transform="scale(0.015625)"/>
       <path id="MicrosoftYaHei-29" d="M 78 -1100 
Q 1131 163 1131 1853 
Q 1131 3547 72 4841 
L 616 4841 
Q 1672 3603 1672 1847 
Q 1672 91 616 -1100 
L 78 -1100 
z
" transform="scale(0.015625)"/>
      </defs>
      <use xlink:href="#MicrosoftYaHei-529f"/>
      <use xlink:href="#MicrosoftYaHei-7387" transform="translate(100 0)"/>
      <use xlink:href="#MicrosoftYaHei-20" transform="translate(200 0)"/>
      <use xlink:href="#MicrosoftYaHei-28" transform="translate(229.589844 0)"/>
      <use xlink:href="#MicrosoftYaHei-57" transform="translate(262.988281 0)"/>
      <use xlink:href="#MicrosoftYaHei-29" transform="translate(364.746094 0)"/>
     </g>
    </g>
   </g>
   <g id="patch_3">
    <path d="M 82.942813 226.184148 
L 158.272813 226.184148 
L 158.272813 185.337722 
L 82.942813 185.337722 
L 82.942813 226.184148 
z
" clip-path="url(#p3fa81239fc)" style="fill: #d55e00; opacity: 0.35; stroke: #000000; stroke-linejoin: miter"/>
   </g>
   <g id="line2d_19">
    <path d="M 120.607813 226.184148 
L 120.607813 285.572856 
" clip-path="url(#p3fa81239fc)" style="fill: none; stroke: #000000; stroke-linecap: round"/>
   </g>
   <g id="line2d_20">
    <path d="M 120.607813 185.337722 
L 120.607813 124.299731 
" clip-path="url(#p3fa81239fc)" style="fill: none; stroke: #000000; stroke-linecap: round"/>
   </g>
   <g id="line2d_21">
    <path d="M 101.775312 285.572856 
L 139.440313 285.572856 
" clip-path="url(#p3fa81239fc)" style="fill: none; stroke: #000000; stroke-linecap: round"/>
   </g>
   <g id="line2d_22">
    <path d="M 101.775312 124.299731 
L 139.440313 124.299731 
" clip-path="url(#p3fa81239fc)" style="fill: none; stroke: #000000; stroke-linecap: round"/>
   </g>
   <g id="line2d_23">
    <defs>
     <path id="mbd1ef1b99d" d="M 0 3 
C 0.795609 3 1.55874 2.683901 2.12132 2.12132 
C 2.683901 1.55874 3 0.795609 3 0 
C 3 -0.795609 2.683901 -1.55874 2.12132 -2.12132 
C 1.55874 -2.683901 0.795609 -3 0 -3 
C -0.795609 -3 -1.55874 -2.683901 -2.12132 -2.12132 
C -2.683901 -1.55874 -3 -0.795609 -3 0 
C -3 0.795609 -2.683901 1.55874 -2.12132 2.12132 
C -1.55874 2.683901 -0.795609 3 0 3 
z
" style="stroke: #000000"/>
    </defs>
    <g clip-path="url(#p3fa81239fc)">
     <use xlink:href="#mbd1ef1b99d" x="120.607813" y="291.80647" style="fill-opacity: 0; stroke: #000000"/>
     <use xlink:href="#mbd1ef1b99d" x="120.607813" y="288.224723" style="fill-opacity: 0; stroke: #000000"/>
     <use xlink:href="#mbd1ef1b99d" x="120.607813" y="79.654984" style="fill-opacity: 0; stroke: #000000"/>
     <use xlink:href="#mbd1ef1b99d" x="120.607813" y="104.355714" style="fill-opacity: 0; stroke: #000000"/>
     <use xlink:href="#mbd1ef1b99d" x="120.607813" y="78.560958" style="fill-opacity: 0; stroke: #000000"/>
     <use xlink:href="#mbd1ef1b99d" x="120.607813" y="116.320907" style="fill-opacity: 0; stroke: #000000"/>
     <use xlink:href="#mbd1ef1b99d" x="120.607813" y="120.599077" style="fill-opacity: 0; stroke: #000000"/>
     <use xlink:href="#mbd1ef1b99d" x="120.607813" y="122.578813" style="fill-opacity: 0; stroke: #000000"/>
     <use xlink:href="#mbd1ef1b99d" x="120.607813" y="97.796902" style="fill-opacity: 0; stroke: #000000"/>
     <use xlink:href="#mbd1ef1b99d" x="120.607813" y="68.691162" style="fill-opacity: 0; stroke: #000000"/>
     <use xlink:href="#mbd1ef1b99d" x="120.607813" y="93.23007" style="fill-opacity: 0; stroke: #000000"/>
     <use xlink:href="#mbd1ef1b99d" x="120.607813" y="112.219221" style="fill-opacity: 0; stroke: #000000"/>
     <use xlink:href="#mbd1ef1b99d" x="120.607813" y="60.683732" style="fill-opacity: 0; stroke: #000000"/>
     <use xlink:href="#mbd1ef1b99d" x="120.607813" y="107.753025" style="fill-opacity: 0; stroke: #000000"/>
     <use xlink:href="#mbd1ef1b99d" x="120.607813" y="121.877361" style="fill-opacity: 0; stroke: #000000"/>
     <use xlink:href="#mbd1ef1b99d" x="120.607813" y="104.717096" style="fill-opacity: 0; stroke: #000000"/>
     <use xlink:href="#mbd1ef1b99d" x="120.607813" y="102.708369" style="fill-opacity: 0; stroke: #000000"/>
     <use xlink:href="#mbd1ef1b99d" x="120.607813" y="109.073651" style="fill-opacity: 0; stroke: #000000"/>
     <use xlink:href="#mbd1ef1b99d" x="120.607813" y="90.742944" style="fill-opacity: 0; stroke: #000000"/>
     <use xlink:href="#mbd1ef1b99d" x="120.607813" y="110.801833" style="fill-opacity: 0; stroke: #000000"/>
     <use xlink:href="#mbd1ef1b99d" x="120.607813" y="62.98584" style="fill-opacity: 0; stroke: #000000"/>
     <use xlink:href="#mbd1ef1b99d" x="120.607813" y="74.537225" style="fill-opacity: 0; stroke: #000000"/>
     <use xlink:href="#mbd1ef1b99d" x="120.607813" y="112.332081" style="fill-opacity: 0; stroke: #000000"/>
     <use xlink:href="#mbd1ef1b99d" x="120.607813" y="98.344976" style="fill-opacity: 0; stroke: #000000"/>
     <use xlink:href="#mbd1ef1b99d" x="120.607813" y="53.524748" style="fill-opacity: 0; stroke: #000000"/>
     <use xlink:href="#mbd1ef1b99d" x="120.607813" y="118.302282" style="fill-opacity: 0; stroke: #000000"/>
     <use xlink:href="#mbd1ef1b99d" x="120.607813" y="112.523449" style="fill-opacity: 0; stroke: #000000"/>
     <use xlink:href="#mbd1ef1b99d" x="120.607813" y="105.93086" style="fill-opacity: 0; stroke: #000000"/>
     <use xlink:href="#mbd1ef1b99d" x="120.607813" y="113.042078" style="fill-opacity: 0; stroke: #000000"/>
     <use xlink:href="#mbd1ef1b99d" x="120.607813" y="95.388289" style="fill-opacity: 0; stroke: #000000"/>
     <use xlink:href="#mbd1ef1b99d" x="120.607813" y="121.519144" style="fill-opacity: 0; stroke: #000000"/>
     <use xlink:href="#mbd1ef1b99d" x="120.607813" y="98.36168" style="fill-opacity: 0; stroke: #000000"/>
     <use xlink:href="#mbd1ef1b99d" x="120.607813" y="99.373941" style="fill-opacity: 0; stroke: #000000"/>
     <use xlink:href="#mbd1ef1b99d" x="120.607813" y="75.84008" style="fill-opacity: 0; stroke: #000000"/>
     <use xlink:href="#mbd1ef1b99d" x="120.607813" y="123.29206" style="fill-opacity: 0; stroke: #000000"/>
     <use xlink:href="#mbd1ef1b99d" x="120.607813" y="89.104178" style="fill-opacity: 0; stroke: #000000"/>
     <use xlink:href="#mbd1ef1b99d" x="120.607813" y="110.007515" style="fill-opacity: 0; stroke: #000000"/>
     <use xlink:href="#mbd1ef1b99d" x="120.607813" y="119.796704" style="fill-opacity: 0; stroke: #000000"/>
     <use xlink:href="#mbd1ef1b99d" x="120.607813" y="88.731252" style="fill-opacity: 0; stroke: #000000"/>
     <use xlink:href="#mbd1ef1b99d" x="120.607813" y="93.275457" style="fill-opacity: 0; stroke: #000000"/>
     <use xlink:href="#mbd1ef1b99d" x="120.607813" y="65.451484" style="fill-opacity: 0; stroke: #000000"/>
     <use xlink:href="#mbd1ef1b99d" x="120.607813" y="116.869284" style="fill-opacity: 0; stroke: #000000"/>
     <use xlink:href="#mbd1ef1b99d" x="120.607813" y="121.547715" style="fill-opacity: 0; stroke: #000000"/>
     <use xlink:href="#mbd1ef1b99d" x="120.607813" y="92.582382" style="fill-opacity: 0; stroke: #000000"/>
     <use xlink:href="#mbd1ef1b99d" x="120.607813" y="113.888919" style="fill-opacity: 0; stroke: #000000"/>
     <use xlink:href="#mbd1ef1b99d" x="120.607813" y="115.275105" style="fill-opacity: 0; stroke: #000000"/>
     <use xlink:href="#mbd1ef1b99d" x="120.607813" y="64.246439" style="fill-opacity: 0; stroke: #000000"/>
     <use xlink:href="#mbd1ef1b99d" x="120.607813" y="96.455033" style="fill-opacity: 0; stroke: #000000"/>
     <use xlink:href="#mbd1ef1b99d" x="120.607813" y="94.17118" style="fill-opacity: 0; stroke: #000000"/>
    </g>
   </g>
   <g id="patch_4">
    <path d="M 250.342812 287.390995 
L 325.672813 287.390995 
L 325.672813 257.212297 
L 250.342812 257.212297 
L 250.342812 287.390995 
z
" clip-path="url(#p3fa81239fc)" style="fill: #009e73; opacity: 0.35; stroke: #000000; stroke-linejoin: miter"/>
   </g>
   <g id="line2d_24">
    <path d="M 288.007812 287.390995 
L 288.007812 332.55272 
" clip-path="url(#p3fa81239fc)" style="fill: none; stroke: #000000; stroke-linecap: round"/>
   </g>
   <g id="line2d_25">
    <path d="M 288.007812 257.212297 
L 288.007812 211.984271 
" clip-path="url(#p3fa81239fc)" style="fill: none; stroke: #000000; stroke-linecap: round"/>
   </g>
   <g id="line2d_26">
    <path d="M 269.175313 332.55272 
L 306.840312 332.55272 
" clip-path="url(#p3fa81239fc)" style="fill: none; stroke: #000000; stroke-linecap: round"/>
   </g>
   <g id="line2d_27">
    <path d="M 269.175313 211.984271 
L 306.840312 211.984271 
" clip-path="url(#p3fa81239fc)" style="fill: none; stroke: #000000; stroke-linecap: round"/>
   </g>
   <g id="line2d_28">
    <g clip-path="url(#p3fa81239fc)">
     <use xlink:href="#mbd1ef1b99d" x="288.007812" y="336.153163" style="fill-opacity: 0; stroke: #000000"/>
     <use xlink:href="#mbd1ef1b99d" x="288.007812" y="340.3125" style="fill-opacity: 0; stroke: #000000"/>
     <use xlink:href="#mbd1ef1b99d" x="288.007812" y="333.420027" style="fill-opacity: 0; stroke: #000000"/>
     <use xlink:href="#mbd1ef1b99d" x="288.007812" y="335.423" style="fill-opacity: 0; stroke: #000000"/>
     <use xlink:href="#mbd1ef1b99d" x="288.007812" y="182.746817" style="fill-opacity: 0; stroke: #000000"/>
     <use xlink:href="#mbd1ef1b99d" x="288.007812" y="160.469513" style="fill-opacity: 0; stroke: #000000"/>
     <use xlink:href="#mbd1ef1b99d" x="288.007812" y="190.030273" style="fill-opacity: 0; stroke: #000000"/>
     <use xlink:href="#mbd1ef1b99d" x="288.007812" y="190.148753" style="fill-opacity: 0; stroke: #000000"/>
     <use xlink:href="#mbd1ef1b99d" x="288.007812" y="200.195446" style="fill-opacity: 0; stroke: #000000"/>
     <use xlink:href="#mbd1ef1b99d" x="288.007812" y="190.963238" style="fill-opacity: 0; stroke: #000000"/>
     <use xlink:href="#mbd1ef1b99d" x="288.007812" y="206.602994" style="fill-opacity: 0; stroke: #000000"/>
     <use xlink:href="#mbd1ef1b99d" x="288.007812" y="210.942202" style="fill-opacity: 0; stroke: #000000"/>
     <use xlink:href="#mbd1ef1b99d" x="288.007812" y="177.355997" style="fill-opacity: 0; stroke: #000000"/>
     <use xlink:href="#mbd1ef1b99d" x="288.007812" y="204.008437" style="fill-opacity: 0; stroke: #000000"/>
     <use xlink:href="#mbd1ef1b99d" x="288.007812" y="187.94468" style="fill-opacity: 0; stroke: #000000"/>
     <use xlink:href="#mbd1ef1b99d" x="288.007812" y="201.24126" style="fill-opacity: 0; stroke: #000000"/>
     <use xlink:href="#mbd1ef1b99d" x="288.007812" y="204.659681" style="fill-opacity: 0; stroke: #000000"/>
     <use xlink:href="#mbd1ef1b99d" x="288.007812" y="206.937494" style="fill-opacity: 0; stroke: #000000"/>
     <use xlink:href="#mbd1ef1b99d" x="288.007812" y="200.433899" style="fill-opacity: 0; stroke: #000000"/>
     <use xlink:href="#mbd1ef1b99d" x="288.007812" y="210.55406" style="fill-opacity: 0; stroke: #000000"/>
     <use xlink:href="#mbd1ef1b99d" x="288.007812" y="211.660095" style="fill-opacity: 0; stroke: #000000"/>
     <use xlink:href="#mbd1ef1b99d" x="288.007812" y="159.395114" style="fill-opacity: 0; stroke: #000000"/>
     <use xlink:href="#mbd1ef1b99d" x="288.007812" y="210.724742" style="fill-opacity: 0; stroke: #000000"/>
     <use xlink:href="#mbd1ef1b99d" x="288.007812" y="199.937096" style="fill-opacity: 0; stroke: #000000"/>
     <use xlink:href="#mbd1ef1b99d" x="288.007812" y="190.563792" style="fill-opacity: 0; stroke: #000000"/>
     <use xlink:href="#mbd1ef1b99d" x="288.007812" y="198.791706" style="fill-opacity: 0; stroke: #000000"/>
     <use xlink:href="#mbd1ef1b99d" x="288.007812" y="186.053096" style="fill-opacity: 0; stroke: #000000"/>
     <use xlink:href="#mbd1ef1b99d" x="288.007812" y="199.275641" style="fill-opacity: 0; stroke: #000000"/>
     <use xlink:href="#mbd1ef1b99d" x="288.007812" y="208.162274" style="fill-opacity: 0; stroke: #000000"/>
     <use xlink:href="#mbd1ef1b99d" x="288.007812" y="209.307831" style="fill-opacity: 0; stroke: #000000"/>
     <use xlink:href="#mbd1ef1b99d" x="288.007812" y="178.555938" style="fill-opacity: 0; stroke: #000000"/>
     <use xlink:href="#mbd1ef1b99d" x="288.007812" y="143.067843" style="fill-opacity: 0; stroke: #000000"/>
     <use xlink:href="#mbd1ef1b99d" x="288.007812" y="211.166009" style="fill-opacity: 0; stroke: #000000"/>
     <use xlink:href="#mbd1ef1b99d" x="288.007812" y="210.062194" style="fill-opacity: 0; stroke: #000000"/>
     <use xlink:href="#mbd1ef1b99d" x="288.007812" y="187.494511" style="fill-opacity: 0; stroke: #000000"/>
    </g>
   </g>
   <g id="patch_5">
    <path d="M 417.742813 245.137337 
L 493.072812 245.137337 
L 493.072812 207.040435 
L 417.742813 207.040435 
L 417.742813 245.137337 
z
" clip-path="url(#p3fa81239fc)" style="fill: #0072b2; opacity: 0.35; stroke: #000000; stroke-linejoin: miter"/>
   </g>
   <g id="line2d_29">
    <path d="M 455.407813 245.137337 
L 455.407813 299.834843 
" clip-path="url(#p3fa81239fc)" style="fill: none; stroke: #000000; stroke-linecap: round"/>
   </g>
   <g id="line2d_30">
    <path d="M 455.407813 207.040435 
L 455.407813 151.199801 
" clip-path="url(#p3fa81239fc)" style="fill: none; stroke: #000000; stroke-linecap: round"/>
   </g>
   <g id="line2d_31">
    <path d="M 436.575313 299.834843 
L 474.240313 299.834843 
" clip-path="url(#p3fa81239fc)" style="fill: none; stroke: #000000; stroke-linecap: round"/>
   </g>
   <g id="line2d_32">
    <path d="M 436.575313 151.199801 
L 474.240313 151.199801 
" clip-path="url(#p3fa81239fc)" style="fill: none; stroke: #000000; stroke-linecap: round"/>
   </g>
   <g id="line2d_33">
    <g clip-path="url(#p3fa81239fc)">
     <use xlink:href="#mbd1ef1b99d" x="455.407813" y="302.303388" style="fill-opacity: 0; stroke: #000000"/>
     <use xlink:href="#mbd1ef1b99d" x="455.407813" y="304.251022" style="fill-opacity: 0; stroke: #000000"/>
     <use xlink:href="#mbd1ef1b99d" x="455.407813" y="306.418484" style="fill-opacity: 0; stroke: #000000"/>
     <use xlink:href="#mbd1ef1b99d" x="455.407813" y="147.718413" style="fill-opacity: 0; stroke: #000000"/>
     <use xlink:href="#mbd1ef1b99d" x="455.407813" y="104.823591" style="fill-opacity: 0; stroke: #000000"/>
     <use xlink:href="#mbd1ef1b99d" x="455.407813" y="111.198049" style="fill-opacity: 0; stroke: #000000"/>
     <use xlink:href="#mbd1ef1b99d" x="455.407813" y="126.394984" style="fill-opacity: 0; stroke: #000000"/>
     <use xlink:href="#mbd1ef1b99d" x="455.407813" y="104.503915" style="fill-opacity: 0; stroke: #000000"/>
     <use xlink:href="#mbd1ef1b99d" x="455.407813" y="134.610014" style="fill-opacity: 0; stroke: #000000"/>
     <use xlink:href="#mbd1ef1b99d" x="455.407813" y="139.286531" style="fill-opacity: 0; stroke: #000000"/>
     <use xlink:href="#mbd1ef1b99d" x="455.407813" y="118.656659" style="fill-opacity: 0; stroke: #000000"/>
     <use xlink:href="#mbd1ef1b99d" x="455.407813" y="137.13818" style="fill-opacity: 0; stroke: #000000"/>
     <use xlink:href="#mbd1ef1b99d" x="455.407813" y="117.03804" style="fill-opacity: 0; stroke: #000000"/>
     <use xlink:href="#mbd1ef1b99d" x="455.407813" y="143.997431" style="fill-opacity: 0; stroke: #000000"/>
     <use xlink:href="#mbd1ef1b99d" x="455.407813" y="118.954395" style="fill-opacity: 0; stroke: #000000"/>
     <use xlink:href="#mbd1ef1b99d" x="455.407813" y="136.078036" style="fill-opacity: 0; stroke: #000000"/>
     <use xlink:href="#mbd1ef1b99d" x="455.407813" y="114.352366" style="fill-opacity: 0; stroke: #000000"/>
     <use xlink:href="#mbd1ef1b99d" x="455.407813" y="116.591439" style="fill-opacity: 0; stroke: #000000"/>
     <use xlink:href="#mbd1ef1b99d" x="455.407813" y="119.312" style="fill-opacity: 0; stroke: #000000"/>
     <use xlink:href="#mbd1ef1b99d" x="455.407813" y="140.50979" style="fill-opacity: 0; stroke: #000000"/>
     <use xlink:href="#mbd1ef1b99d" x="455.407813" y="119.613105" style="fill-opacity: 0; stroke: #000000"/>
     <use xlink:href="#mbd1ef1b99d" x="455.407813" y="125.63799" style="fill-opacity: 0; stroke: #000000"/>
     <use xlink:href="#mbd1ef1b99d" x="455.407813" y="132.292898" style="fill-opacity: 0; stroke: #000000"/>
     <use xlink:href="#mbd1ef1b99d" x="455.407813" y="132.46819" style="fill-opacity: 0; stroke: #000000"/>
     <use xlink:href="#mbd1ef1b99d" x="455.407813" y="141.637977" style="fill-opacity: 0; stroke: #000000"/>
     <use xlink:href="#mbd1ef1b99d" x="455.407813" y="132.372022" style="fill-opacity: 0; stroke: #000000"/>
     <use xlink:href="#mbd1ef1b99d" x="455.407813" y="148.278036" style="fill-opacity: 0; stroke: #000000"/>
     <use xlink:href="#mbd1ef1b99d" x="455.407813" y="145.792941" style="fill-opacity: 0; stroke: #000000"/>
    </g>
   </g>
   <g id="patch_6">
    <path d="M 585.142813 213.975045 
L 660.472813 213.975045 
L 660.472813 171.475492 
L 585.142813 171.475492 
L 585.142813 213.975045 
z
" clip-path="url(#p3fa81239fc)" style="fill: #cc79a7; opacity: 0.35; stroke: #000000; stroke-linejoin: miter"/>
   </g>
   <g id="line2d_34">
    <path d="M 622.807813 213.975045 
L 622.807813 275.620839 
" clip-path="url(#p3fa81239fc)" style="fill: none; stroke: #000000; stroke-linecap: round"/>
   </g>
   <g id="line2d_35">
    <path d="M 622.807813 171.475492 
L 622.807813 107.781982 
" clip-path="url(#p3fa81239fc)" style="fill: none; stroke: #000000; stroke-linecap: round"/>
   </g>
   <g id="line2d_36">
    <path d="M 603.975313 275.620839 
L 641.640313 275.620839 
" clip-path="url(#p3fa81239fc)" style="fill: none; stroke: #000000; stroke-linecap: round"/>
   </g>
   <g id="line2d_37">
    <path d="M 603.975313 107.781982 
L 641.640313 107.781982 
" clip-path="url(#p3fa81239fc)" style="fill: none; stroke: #000000; stroke-linecap: round"/>
   </g>
   <g id="line2d_38">
    <g clip-path="url(#p3fa81239fc)">
     <use xlink:href="#mbd1ef1b99d" x="622.807813" y="279.553647" style="fill-opacity: 0; stroke: #000000"/>
     <use xlink:href="#mbd1ef1b99d" x="622.807813" y="101.084999" style="fill-opacity: 0; stroke: #000000"/>
     <use xlink:href="#mbd1ef1b99d" x="622.807813" y="105.804729" style="fill-opacity: 0; stroke: #000000"/>
     <use xlink:href="#mbd1ef1b99d" x="622.807813" y="67.638295" style="fill-opacity: 0; stroke: #000000"/>
     <use xlink:href="#mbd1ef1b99d" x="622.807813" y="103.703233" style="fill-opacity: 0; stroke: #000000"/>
     <use xlink:href="#mbd1ef1b99d" x="622.807813" y="99.073304" style="fill-opacity: 0; stroke: #000000"/>
     <use xlink:href="#mbd1ef1b99d" x="622.807813" y="78.388637" style="fill-opacity: 0; stroke: #000000"/>
     <use xlink:href="#mbd1ef1b99d" x="622.807813" y="89.809197" style="fill-opacity: 0; stroke: #000000"/>
     <use xlink:href="#mbd1ef1b99d" x="622.807813" y="103.301892" style="fill-opacity: 0; stroke: #000000"/>
     <use xlink:href="#mbd1ef1b99d" x="622.807813" y="76.124154" style="fill-opacity: 0; stroke: #000000"/>
     <use xlink:href="#mbd1ef1b99d" x="622.807813" y="96.42143" style="fill-opacity: 0; stroke: #000000"/>
     <use xlink:href="#mbd1ef1b99d" x="622.807813" y="84.024297" style="fill-opacity: 0; stroke: #000000"/>
     <use xlink:href="#mbd1ef1b99d" x="622.807813" y="107.709006" style="fill-opacity: 0; stroke: #000000"/>
     <use xlink:href="#mbd1ef1b99d" x="622.807813" y="99.537213" style="fill-opacity: 0; stroke: #000000"/>
     <use xlink:href="#mbd1ef1b99d" x="622.807813" y="107.071663" style="fill-opacity: 0; stroke: #000000"/>
     <use xlink:href="#mbd1ef1b99d" x="622.807813" y="74.596638" style="fill-opacity: 0; stroke: #000000"/>
     <use xlink:href="#mbd1ef1b99d" x="622.807813" y="37.9125" style="fill-opacity: 0; stroke: #000000"/>
     <use xlink:href="#mbd1ef1b99d" x="622.807813" y="72.638255" style="fill-opacity: 0; stroke: #000000"/>
     <use xlink:href="#mbd1ef1b99d" x="622.807813" y="64.419171" style="fill-opacity: 0; stroke: #000000"/>
     <use xlink:href="#mbd1ef1b99d" x="622.807813" y="80.844402" style="fill-opacity: 0; stroke: #000000"/>
     <use xlink:href="#mbd1ef1b99d" x="622.807813" y="71.793117" style="fill-opacity: 0; stroke: #000000"/>
     <use xlink:href="#mbd1ef1b99d" x="622.807813" y="65.900139" style="fill-opacity: 0; stroke: #000000"/>
     <use xlink:href="#mbd1ef1b99d" x="622.807813" y="106.748148" style="fill-opacity: 0; stroke: #000000"/>
     <use xlink:href="#mbd1ef1b99d" x="622.807813" y="90.403922" style="fill-opacity: 0; stroke: #000000"/>
     <use xlink:href="#mbd1ef1b99d" x="622.807813" y="88.361111" style="fill-opacity: 0; stroke: #000000"/>
     <use xlink:href="#mbd1ef1b99d" x="622.807813" y="106.125555" style="fill-opacity: 0; stroke: #000000"/>
     <use xlink:href="#mbd1ef1b99d" x="622.807813" y="95.425897" style="fill-opacity: 0; stroke: #000000"/>
     <use xlink:href="#mbd1ef1b99d" x="622.807813" y="86.861815" style="fill-opacity: 0; stroke: #000000"/>
     <use xlink:href="#mbd1ef1b99d" x="622.807813" y="91.175998" style="fill-opacity: 0; stroke: #000000"/>
     <use xlink:href="#mbd1ef1b99d" x="622.807813" y="86.458538" style="fill-opacity: 0; stroke: #000000"/>
     <use xlink:href="#mbd1ef1b99d" x="622.807813" y="99.133087" style="fill-opacity: 0; stroke: #000000"/>
     <use xlink:href="#mbd1ef1b99d" x="622.807813" y="101.470833" style="fill-opacity: 0; stroke: #000000"/>
     <use xlink:href="#mbd1ef1b99d" x="622.807813" y="103.544402" style="fill-opacity: 0; stroke: #000000"/>
     <use xlink:href="#mbd1ef1b99d" x="622.807813" y="58.236079" style="fill-opacity: 0; stroke: #000000"/>
     <use xlink:href="#mbd1ef1b99d" x="622.807813" y="91.120422" style="fill-opacity: 0; stroke: #000000"/>
     <use xlink:href="#mbd1ef1b99d" x="622.807813" y="107.207921" style="fill-opacity: 0; stroke: #000000"/>
     <use xlink:href="#mbd1ef1b99d" x="622.807813" y="101.144369" style="fill-opacity: 0; stroke: #000000"/>
     <use xlink:href="#mbd1ef1b99d" x="622.807813" y="84.006806" style="fill-opacity: 0; stroke: #000000"/>
     <use xlink:href="#mbd1ef1b99d" x="622.807813" y="88.996082" style="fill-opacity: 0; stroke: #000000"/>
     <use xlink:href="#mbd1ef1b99d" x="622.807813" y="101.726432" style="fill-opacity: 0; stroke: #000000"/>
     <use xlink:href="#mbd1ef1b99d" x="622.807813" y="67.331349" style="fill-opacity: 0; stroke: #000000"/>
     <use xlink:href="#mbd1ef1b99d" x="622.807813" y="102.695262" style="fill-opacity: 0; stroke: #000000"/>
     <use xlink:href="#mbd1ef1b99d" x="622.807813" y="93.773169" style="fill-opacity: 0; stroke: #000000"/>
     <use xlink:href="#mbd1ef1b99d" x="622.807813" y="107.325414" style="fill-opacity: 0; stroke: #000000"/>
    </g>
   </g>
   <g id="line2d_39">
    <path d="M 82.942813 206.977627 
L 158.272813 206.977627 
" clip-path="url(#p3fa81239fc)" style="fill: none; stroke: #ff7f0e"/>
   </g>
   <g id="line2d_40">
    <path d="M 250.342812 273.016472 
L 325.672813 273.016472 
" clip-path="url(#p3fa81239fc)" style="fill: none; stroke: #ff7f0e"/>
   </g>
   <g id="line2d_41">
    <path d="M 417.742813 227.637015 
L 493.072812 227.637015 
" clip-path="url(#p3fa81239fc)" style="fill: none; stroke: #ff7f0e"/>
   </g>
   <g id="line2d_42">
    <path d="M 585.142813 193.659112 
L 660.472813 193.659112 
" clip-path="url(#p3fa81239fc)" style="fill: none; stroke: #ff7f0e"/>
   </g>
   <g id="patch_7">
    <path d="M 36.907813 355.4325 
L 36.907813 22.7925 
" style="fill: none; stroke: #cccccc; stroke-linejoin: miter; stroke-linecap: square"/>
   </g>
   <g id="patch_8">
    <path d="M 706.507812 355.4325 
L 706.507812 22.7925 
" style="fill: none; stroke: #cccccc; stroke-linejoin: miter; stroke-linecap: square"/>
   </g>
   <g id="patch_9">
    <path d="M 36.907813 355.4325 
L 706.507813 355.4325 
" style="fill: none; stroke: #cccccc; stroke-linejoin: miter; stroke-linecap: square"/>
   </g>
   <g id="patch_10">
    <path d="M 36.907813 22.7925 
L 706.507813 22.7925 
" style="fill: none; stroke: #cccccc; stroke-linejoin: miter; stroke-linecap: square"/>
   </g>
   <g id="text_11">
    <!-- 功率分布箱线图（多轮任务） -->
    <g style="fill: #262626" transform="translate(293.707813 16.7925) scale(0.12 -0.12)">
     <defs>
      <path id="MicrosoftYaHei-5206" d="M 900 2559 
L 5056 2559 
Q 5025 1497 4963 484 
Q 4888 -684 3856 -678 
Q 3350 -684 2788 -647 
Q 2750 -384 2700 -116 
Q 3181 -184 3775 -191 
Q 4400 -203 4463 541 
Q 4513 1216 4538 2097 
L 2616 2097 
Q 2541 1053 2181 416 
Q 1706 -422 588 -878 
Q 425 -666 231 -459 
Q 1269 -72 1725 666 
Q 2053 1225 2103 2097 
L 900 2097 
L 900 2559 
z
M 3488 5159 
L 3938 5353 
Q 4625 3678 6350 2847 
Q 6069 2553 5944 2372 
Q 4225 3366 3488 5159 
z
M 50 2766 
Q 1338 3678 2250 5253 
L 2694 5009 
Q 1744 3347 413 2341 
Q 281 2534 50 2766 
z
" transform="scale(0.015625)"/>
      <path id="MicrosoftYaHei-5e03" d="M 3250 3666 
L 3750 3666 
L 3750 2703 
L 5681 2703 
L 5681 541 
Q 5681 -197 5050 -197 
Q 4888 -197 4119 -191 
Q 4081 16 4019 316 
Q 4644 278 4769 278 
Q 5188 266 5188 666 
L 5188 2253 
L 3750 2253 
L 3750 -828 
L 3250 -828 
L 3250 2253 
L 1844 2253 
L 1844 -353 
L 1350 -353 
L 1350 2113 
Q 928 1553 450 1028 
Q 294 1253 94 1447 
Q 1241 2647 1969 3984 
L 200 3984 
L 200 4434 
L 2200 4434 
Q 2419 4884 2594 5353 
L 3088 5153 
Q 2934 4788 2766 4434 
L 6250 4434 
L 6250 3984 
L 2538 3984 
Q 2188 3325 1772 2703 
L 3250 2703 
L 3250 3666 
z
" transform="scale(0.015625)"/>
      <path id="MicrosoftYaHei-7bb1" d="M 2838 3316 
L 5888 3316 
L 5888 -822 
L 5431 -822 
L 5431 -459 
L 3294 -459 
L 3294 -822 
L 2838 -822 
L 2838 3316 
z
M 81 478 
Q 844 1434 1138 2359 
L 238 2359 
L 238 2772 
L 1213 2772 
L 1213 3628 
L 1650 3628 
L 1650 2772 
L 2488 2772 
L 2488 2359 
L 1650 2359 
L 1650 1641 
L 1856 1853 
Q 2306 1472 2644 1141 
L 2325 816 
Q 2006 1166 1650 1497 
L 1650 -841 
L 1213 -841 
L 1213 1584 
Q 856 697 300 -28 
Q 213 197 81 478 
z
M 2125 3459 
Q 1863 3803 1600 4091 
L 1875 4297 
L 1231 4297 
Q 856 3791 388 3384 
Q 263 3534 75 3722 
Q 850 4353 1300 5309 
L 1838 5309 
Q 1681 4978 1494 4684 
L 3325 4684 
L 3325 4297 
L 1950 4297 
Q 2169 4072 2475 3728 
L 2125 3459 
z
M 4913 3397 
Q 4644 3747 4356 4053 
L 4663 4297 
L 4038 4297 
Q 3756 3822 3463 3484 
Q 3306 3622 3081 3791 
Q 3613 4359 4013 5309 
L 4550 5309 
Q 4400 4972 4250 4684 
L 6225 4684 
L 6225 4297 
L 4694 4297 
Q 5025 3966 5269 3678 
L 4913 3397 
z
M 3294 -47 
L 5431 -47 
L 5431 703 
L 3294 703 
L 3294 -47 
z
M 5431 2903 
L 3294 2903 
L 3294 2191 
L 5431 2191 
L 5431 2903 
z
M 3294 1091 
L 5431 1091 
L 5431 1803 
L 3294 1803 
L 3294 1091 
z
" transform="scale(0.015625)"/>
      <path id="MicrosoftYaHei-7ebf" d="M 1969 -347 
Q 3144 75 4003 631 
Q 3781 1197 3653 1972 
L 2319 1784 
L 2244 2234 
L 3591 2422 
Q 3538 2859 3513 3356 
L 2381 3228 
L 2306 3678 
L 3488 3809 
Q 3453 4459 3425 5303 
L 3938 5303 
Q 3953 4497 3978 3866 
L 6069 4103 
L 6125 3659 
L 3997 3413 
Q 4019 2919 4069 2488 
L 6225 2791 
L 6281 2347 
L 4128 2041 
Q 4234 1394 4416 916 
Q 5078 1416 5519 2009 
L 5925 1703 
Q 5363 1025 4619 475 
Q 4859 44 5194 -184 
Q 5606 -428 5725 66 
Q 5806 466 5856 953 
Q 6144 828 6338 772 
Q 6231 97 6125 -247 
Q 5944 -778 5506 -778 
Q 5050 -778 4663 -403 
Q 4409 -163 4209 194 
Q 3350 -363 2281 -772 
Q 2169 -597 1969 -347 
z
M 900 1541 
Q 1456 1622 2213 1753 
Q 2175 1522 2156 1272 
Q 1113 1109 325 978 
L 225 1447 
Q 659 1913 1178 2775 
Q 672 2747 225 2703 
L 106 3128 
Q 688 3922 1300 5353 
L 1775 5166 
Q 1131 3897 669 3166 
Q 1041 3178 1422 3194 
Q 1638 3578 1869 4028 
L 2331 3797 
Q 1569 2478 900 1541 
z
M 106 97 
Q 1206 334 2331 616 
Q 2313 366 2313 141 
Q 1269 -103 244 -378 
L 106 97 
z
M 4463 4972 
L 4731 5284 
Q 5175 5003 5681 4609 
L 5381 4247 
Q 4863 4691 4463 4972 
z
" transform="scale(0.015625)"/>
      <path id="MicrosoftYaHei-56fe" d="M 431 5072 
L 5944 5072 
L 5944 -809 
L 5475 -809 
L 5475 -509 
L 900 -509 
L 900 -809 
L 431 -809 
L 431 5072 
z
M 5475 4622 
L 900 4622 
L 900 -59 
L 5475 -59 
L 5475 4622 
z
M 1113 3091 
Q 1969 3709 2519 4547 
L 2931 4353 
Q 2816 4181 2681 4016 
L 4894 4016 
L 4894 3647 
Q 4434 3091 3722 2644 
Q 4381 2422 5338 2297 
Q 5194 2016 5131 1828 
Q 4022 2081 3256 2400 
Q 2491 2056 1225 1728 
Q 1138 1934 1013 2128 
Q 2109 2353 2825 2644 
Q 2384 2947 2066 3341 
Q 1769 3056 1419 2784 
Q 1294 2916 1113 3091 
z
M 1563 672 
L 1694 1103 
Q 3256 897 4700 622 
L 4531 147 
Q 3150 453 1563 672 
z
M 4275 3628 
L 2347 3628 
Q 2338 3616 2328 3606 
Q 2691 3141 3244 2841 
Q 3891 3188 4275 3628 
z
M 2219 1503 
L 2344 1922 
Q 3263 1784 4275 1609 
L 4144 1172 
Q 3119 1378 2219 1503 
z
" transform="scale(0.015625)"/>
      <path id="MicrosoftYaHei-ff08" d="M 5288 -1100 
Q 4172 119 4172 1850 
Q 4172 3603 5288 4838 
L 5825 4838 
Q 4716 3572 4716 1856 
Q 4716 166 5819 -1100 
L 5288 -1100 
z
" transform="scale(0.015625)"/>
      <path id="MicrosoftYaHei-591a" d="M 3719 2803 
L 4338 2803 
Q 4050 2522 3744 2272 
L 6019 2272 
L 6019 1816 
Q 4006 -366 650 -891 
Q 538 -666 369 -422 
Q 1894 -203 3100 322 
Q 2919 559 2581 903 
L 2956 1178 
Q 3275 847 3538 522 
Q 4588 1059 5344 1834 
L 3200 1834 
Q 2100 1009 881 484 
Q 769 666 581 909 
Q 2319 1609 3719 2803 
z
M 2775 5316 
L 3406 5316 
Q 3088 4972 2756 4672 
L 5700 4672 
L 5700 4247 
Q 3550 2516 481 1666 
Q 350 1916 194 2103 
Q 1481 2441 2506 2872 
Q 2281 3122 1913 3484 
L 2263 3759 
Q 2631 3403 2944 3066 
Q 4088 3584 4950 4234 
L 2256 4234 
Q 1606 3678 713 3172 
Q 575 3359 369 3566 
Q 1800 4328 2775 5316 
z
" transform="scale(0.015625)"/>
      <path id="MicrosoftYaHei-8f6e" d="M 688 2228 
L 1438 2228 
L 1438 3597 
L 1888 3597 
L 1888 2228 
L 2688 2228 
L 2688 1803 
L 1888 1803 
L 1888 959 
Q 2344 1016 2763 1078 
Q 2756 922 2744 616 
Q 2313 566 1888 516 
L 1888 -866 
L 1438 -866 
L 1438 466 
Q 781 384 138 303 
L 88 772 
Q 794 834 1438 909 
L 1438 1803 
L 225 1803 
L 225 2197 
Q 550 3116 800 3916 
L 156 3916 
L 156 4341 
L 925 4341 
Q 1081 4859 1194 5322 
L 1675 5216 
Q 1538 4766 1400 4341 
L 2781 4341 
L 2781 3916 
L 1263 3916 
Q 975 3028 688 2228 
z
M 3163 2891 
L 3638 2891 
L 3638 1509 
Q 4456 1984 5150 2653 
L 5544 2359 
Q 4588 1484 3638 997 
L 3638 191 
Q 3638 -197 4075 -197 
L 4925 -197 
Q 5363 -197 5425 178 
Q 5494 584 5525 1097 
Q 5575 1078 5994 916 
Q 5956 441 5881 28 
Q 5775 -653 5013 -653 
L 3925 -653 
Q 3163 -653 3163 72 
L 3163 2891 
z
M 4656 5259 
L 4544 5072 
Q 5244 3722 6313 3178 
Q 6113 2953 5975 2766 
Q 4975 3359 4250 4622 
Q 3531 3422 2625 2697 
Q 2475 2891 2288 3059 
Q 3406 3897 4044 5259 
L 4656 5259 
z
" transform="scale(0.015625)"/>
      <path id="MicrosoftYaHei-4efb" d="M 2138 -3 
L 3963 -3 
L 3963 1972 
L 2025 1972 
L 2025 2447 
L 3963 2447 
L 3963 4306 
Q 3188 4253 2338 4209 
Q 2306 4428 2250 4691 
Q 4356 4803 5969 4978 
L 6063 4484 
Q 5325 4409 4488 4347 
L 4488 2447 
L 6319 2447 
L 6319 1972 
L 4488 1972 
L 4488 -3 
L 6225 -3 
L 6225 -466 
L 2138 -466 
L 2138 -3 
z
M 75 2309 
Q 1044 3616 1606 5291 
L 2100 5109 
Q 1819 4375 1513 3741 
L 1513 -841 
L 1019 -841 
L 1019 2822 
Q 666 2225 281 1753 
Q 194 2003 75 2309 
z
" transform="scale(0.015625)"/>
      <path id="MicrosoftYaHei-52a1" d="M 1900 5391 
L 2369 5191 
Q 2228 4959 2075 4741 
L 5456 4741 
L 5456 4322 
Q 4875 3616 3866 3088 
Q 4916 2706 6369 2616 
Q 6169 2334 6019 2091 
Q 4391 2306 3288 2819 
Q 2047 2291 288 1984 
Q 181 2178 31 2422 
Q 1597 2663 2750 3103 
Q 2038 3538 1609 4131 
Q 1125 3556 538 3066 
Q 350 3266 194 3403 
Q 1344 4316 1900 5391 
z
M 588 1728 
L 2406 1728 
Q 2450 2031 2481 2403 
L 2988 2403 
Q 2947 2031 2903 1728 
L 5425 1728 
Q 5363 609 5306 159 
Q 5206 -722 4256 -728 
Q 3888 -734 3150 -703 
Q 3113 -472 3056 -184 
Q 3775 -247 4244 -253 
Q 4775 -241 4831 284 
Q 4888 753 4913 1284 
L 2828 1284 
Q 2497 -219 500 -897 
Q 356 -691 194 -478 
Q 1988 103 2319 1284 
L 588 1284 
L 588 1728 
z
M 4788 4328 
L 1997 4328 
Q 2500 3725 3291 3334 
Q 4194 3756 4788 4328 
z
" transform="scale(0.015625)"/>
      <path id="MicrosoftYaHei-ff09" d="M 1113 -1100 
L 575 -1100 
Q 1684 163 1684 1888 
Q 1684 3581 581 4838 
L 1113 4838 
Q 2222 3628 2222 1888 
Q 2222 128 1113 -1100 
z
" transform="scale(0.015625)"/>
     </defs>
     <use xlink:href="#MicrosoftYaHei-529f"/>
     <use xlink:href="#MicrosoftYaHei-7387" transform="translate(100 0)"/>
     <use xlink:href="#MicrosoftYaHei-5206" transform="translate(200 0)"/>
     <use xlink:href="#MicrosoftYaHei-5e03" transform="translate(300 0)"/>
     <use xlink:href="#MicrosoftYaHei-7bb1" transform="translate(400 0)"/>
     <use xlink:href="#MicrosoftYaHei-7ebf" transform="translate(500 0)"/>
     <use xlink:href="#MicrosoftYaHei-56fe" transform="translate(600 0)"/>
     <use xlink:href="#MicrosoftYaHei-ff08" transform="translate(700 0)"/>
     <use xlink:href="#MicrosoftYaHei-591a" transform="translate(800 0)"/>
     <use xlink:href="#MicrosoftYaHei-8f6e" transform="translate(900 0)"/>
     <use xlink:href="#MicrosoftYaHei-4efb" transform="translate(1000 0)"/>
     <use xlink:href="#MicrosoftYaHei-52a1" transform="translate(1100 0)"/>
     <use xlink:href="#MicrosoftYaHei-ff09" transform="translate(1200 0)"/>
    </g>
   </g>
  </g>
 </g>
 <defs>
  <clipPath id="p3fa81239fc">
   <rect x="36.907813" y="22.7925" width="669.6" height="332.64"/>
  </clipPath>
 </defs>
</svg>
